# Rhino

mtllib 181014 Hip.mtl
usemtl Plaster (1)
v 0.0509999990463257 0.232500001788139 -0.03000015206635
v 0.0509999990463257 0.232500001788139 0.0299998484551907
v 0.0599999986588955 0.232500001788139 -0.03000015206635
v 0.0599999986588955 0.232500001788139 0.0299998484551907
v 0.0599999986588955 0.232500001788139 -0.03000015206635
v 0.0599999986588955 0.232500001788139 0.0299998484551907
v 0.0599999986588955 0.292499989271164 -0.03000015206635
v 0.0599999986588955 0.292499989271164 0.0299998484551907
v 0.0599999986588955 0.292499989271164 -0.03000015206635
v 0.0599999986588955 0.292499989271164 0.0299998484551907
v 0.0509999990463257 0.292499989271164 -0.03000015206635
v 0.0509999990463257 0.292499989271164 0.0299998484551907
v 0.0509999990463257 0.292499989271164 -0.03000015206635
v 0.0509999990463257 0.292499989271164 0.0299998484551907
v 0.0509999990463257 0.232500001788139 -0.03000015206635
v 0.0509999990463257 0.232500001788139 0.0299998484551907
v 0.0509999990463257 0.232500001788139 -0.03000015206635
v 0.0599999986588955 0.232500001788139 -0.03000015206635
v 0.0599999986588955 0.292499989271164 -0.03000015206635
v 0.0509999990463257 0.292499989271164 -0.03000015206635
v 0.0509999990463257 0.232500001788139 0.0299998484551907
v 0.0599999986588955 0.232500001788139 0.0299998484551907
v 0.0599999986588955 0.292499989271164 0.0299998484551907
v 0.0509999990463257 0.292499989271164 0.0299998484551907
vt 0 0
vt 0 0.884614586830139
vt 0.076271191239357 0
vt 0.076271191239357 0.884614586830139
vt 0.076271191239357 0
vt 0.076271191239357 0.884614586830139
vt 0.5 0
vt 0.5 0.884614586830139
vt 0.5 0
vt 0.5 0.884614586830139
vt 0.576271176338196 0
vt 0.576271176338196 0.884614586830139
vt 0.576271176338196 0
vt 0.576271176338196 0.884614586830139
vt 1 0
vt 1 0.884614586830139
vt 0.434782594442368 1
vt 0.434782594442368 0.884615480899811
vt 0 0.884615480899811
vt 0 1
vt 1 0.884615480899811
vt 1 1
vt 0.56521737575531 1
vt 0.56521737575531 0.884615480899811
vn 0 -1 0
vn 0 -1 0
vn 0 -1 0
vn 0 -1 0
vn 1 0 0
vn 1 0 0
vn 1 0 0
vn 1 0 0
vn 0 1 0
vn 0 1 0
vn 0 1 0
vn 0 1 0
vn -1 0 0
vn -1 0 0
vn -1 0 0
vn -1 0 0
vn 0 0 -1
vn 0 0 -1
vn 0 0 -1
vn 0 0 -1
vn 0 0 1
vn 0 0 1
vn 0 0 1
vn 0 0 1
f 18/18/18 17/17/17 20/20/20 19/19/19
f 24/24/24 21/21/21 22/22/22 23/23/23
f 1/1/1 3/3/3 4/4/4 2/2/2
f 5/5/5 7/7/7 8/8/8 6/6/6
f 9/9/9 11/11/11 12/12/12 10/10/10
f 13/13/13 15/15/15 16/16/16 14/14/14
