# Rhino

mtllib GripTop.mtl
v -0.0512500032782555 -1.42400686797828E-08 0.0512499995529652
v 0.0512500032782555 0 0.0512499995529652
v -0.0512500032782555 -1.42400695679612E-08 -0.0512499995529652
v 0.0512500032782555 0 -0.0512499995529652
v -0.0512500032782555 -1.42400695679612E-08 -0.0512499995529652
v 0.0512500032782555 0 -0.0512499995529652
v -0.0512500032782555 0.0162500385195017 -0.0512499995529652
v 0.0512500032782555 0.0162500515580177 -0.0512499995529652
v -0.0512500032782555 0.0162500385195017 -0.0512499995529652
v 0.0512500032782555 0.0162500515580177 -0.0512499995529652
v -0.0512500032782555 0.0162500385195017 0.0512499995529652
v 0.0512500032782555 0.0162500515580177 0.0512499995529652
v -0.0512500032782555 0.0162500385195017 0.0512499995529652
v 0.0512500032782555 0.0162500515580177 0.0512499995529652
v -0.0512500032782555 -1.42400686797828E-08 0.0512499995529652
v 0.0512500032782555 0 0.0512499995529652
v -0.0512500032782555 -1.42400686797828E-08 0.0512499995529652
v -0.0512500032782555 -1.42400695679612E-08 -0.0512499995529652
v -0.0512500032782555 0.0162500385195017 -0.0512499995529652
v -0.0512500032782555 0.0162500385195017 0.0512499995529652
v 0.0512500032782555 0 0.0512499995529652
v 0.0512500032782555 0 -0.0512499995529652
v 0.0512500032782555 0.0162500515580177 -0.0512499995529652
v 0.0512500032782555 0.0162500515580177 0.0512499995529652
vt 0 0
vt 0 0.879628539085388
vt 0.344563543796539 0
vt 0.344563543796539 0.879628539085388
vt 0.344563543796539 0
vt 0.344563543796539 0.879628539085388
vt 0.5 0
vt 0.5 0.879628539085388
vt 0.5 0
vt 0.5 0.879628539085388
vt 0.844563543796539 0
vt 0.844563543796539 0.879628539085388
vt 0.844563543796539 0
vt 0.844563543796539 0.879628539085388
vt 1 0
vt 1 0.879628539085388
vt 0 1
vt 0.431578755378723 1
vt 0.431578755378723 0.87962943315506
vt 0 0.87962943315506
vt 0.568421244621277 0.87962943315506
vt 1 0.87962943315506
vt 1 1
vt 0.568421244621277 1
vn 1.38927489956586E-07 -1 0
vn 1.38927489956586E-07 -1 0
vn 1.38927489956586E-07 -1 0
vn 1.38927489956586E-07 -1 0
vn 0 0 -1
vn 0 0 -1
vn 0 0 -1
vn 0 0 -1
vn -1.38927489956586E-07 1 0
vn -1.38927489956586E-07 1 0
vn -1.38927489956586E-07 1 0
vn -1.38927489956586E-07 1 0
vn 0 0 1
vn 0 0 1
vn 0 0 1
vn 0 0 1
vn -1 -1.38927489956586E-07 0
vn -1 -1.38927489956586E-07 0
vn -1 -1.38927489956586E-07 0
vn -1 -1.38927489956586E-07 0
vn 1 1.38927489956586E-07 0
vn 1 1.38927489956586E-07 0
vn 1 1.38927489956586E-07 0
vn 1 1.38927489956586E-07 0
f 18/18/18 17/17/17 20/20/20 19/19/19
f 24/24/24 21/21/21 22/22/22 23/23/23
f 1/1/1 3/3/3 4/4/4 2/2/2
f 5/5/5 7/7/7 8/8/8 6/6/6
f 9/9/9 11/11/11 12/12/12 10/10/10
f 13/13/13 15/15/15 16/16/16 14/14/14
