# Rhino

mtllib Squirrel Wheel.mtl
usemtl Plaster (13)
v 22 0 -37
v -22 0 -37
v 22 -5.514564037323 -36.586742401123
v -22 -5.514564037323 -36.586742401123
v 22 -10.9059410095215 -35.3561935424805
v -22 -10.9059410095215 -35.3561935424805
v 22 -16.0536975860596 -33.3358497619629
v -22 -16.0536975860596 -33.3358497619629
v 22 -20.8428421020508 -30.5708351135254
v -22 -20.8428421020508 -30.5708351135254
v 22 -25.1663913726807 -27.1229190826416
v -22 -25.1663913726807 -27.1229190826416
v 22 -28.9277648925781 -23.0691223144531
v -22 -28.9277648925781 -23.0691223144531
v 22 -32.0429382324219 -18.5
v -22 -32.0429382324219 -18.5
v 22 -34.4423294067383 -13.5176181793213
v -22 -34.4423294067383 -13.5176181793213
v 22 -36.0723342895508 -8.23327445983887
v -22 -36.0723342895508 -8.23327445983887
v 22 -36.896541595459 -2.7650134563446
v -22 -36.896541595459 -2.7650134563446
v 22 -36.896541595459 2.7650134563446
v -22 -36.896541595459 2.7650134563446
v 22 -36.0723342895508 8.23327445983887
v -22 -36.0723342895508 8.23327445983887
v 22 -34.4423294067383 13.5176181793213
v -22 -34.4423294067383 13.5176181793213
v 22 -32.0429382324219 18.5
v -22 -32.0429382324219 18.5
v 22 -28.9277648925781 23.0691223144531
v -22 -28.9277648925781 23.0691223144531
v 22 -25.1663913726807 27.1229190826416
v -22 -25.1663913726807 27.1229190826416
v 22 -20.8428421020508 30.5708351135254
v -22 -20.8428421020508 30.5708351135254
v 22 -16.0536975860596 33.3358497619629
v -22 -16.0536975860596 33.3358497619629
v 22 -10.9059410095215 35.3561935424805
v -22 -10.9059410095215 35.3561935424805
v 22 -5.514564037323 36.586742401123
v -22 -5.514564037323 36.586742401123
v 22 0 37
v -22 0 37
v 22 5.514564037323 36.586742401123
v -22 5.514564037323 36.586742401123
v 22 10.9059410095215 35.3561935424805
v -22 10.9059410095215 35.3561935424805
v 22 16.0536975860596 33.3358497619629
v -22 16.0536975860596 33.3358497619629
v 22 20.8428421020508 30.5708351135254
v -22 20.8428421020508 30.5708351135254
v 22 25.1663913726807 27.1229190826416
v -22 25.1663913726807 27.1229190826416
v 22 28.9277648925781 23.0691223144531
v -22 28.9277648925781 23.0691223144531
v 22 32.0429382324219 18.5
v -22 32.0429382324219 18.5
v 22 34.4423294067383 13.5176181793213
v -22 34.4423294067383 13.5176181793213
v 22 36.0723342895508 8.23327445983887
v -22 36.0723342895508 8.23327445983887
v 22 36.896541595459 2.7650134563446
v -22 36.896541595459 2.7650134563446
v 22 36.896541595459 -2.7650134563446
v -22 36.896541595459 -2.7650134563446
v 22 36.0723342895508 -8.23327445983887
v -22 36.0723342895508 -8.23327445983887
v 22 34.4423294067383 -13.5176181793213
v -22 34.4423294067383 -13.5176181793213
v 22 32.0429382324219 -18.5
v -22 32.0429382324219 -18.5
v 22 28.9277648925781 -23.0691223144531
v -22 28.9277648925781 -23.0691223144531
v 22 25.1663913726807 -27.1229190826416
v -22 25.1663913726807 -27.1229190826416
v 22 20.8428421020508 -30.5708351135254
v -22 20.8428421020508 -30.5708351135254
v 22 16.0536975860596 -33.3358497619629
v -22 16.0536975860596 -33.3358497619629
v 22 10.9059410095215 -35.3561935424805
v -22 10.9059410095215 -35.3561935424805
v 22 5.514564037323 -36.586742401123
v -22 5.514564037323 -36.586742401123
v 22 0 -37
v -22 0 -37
v 22 0 -37
v 22 -5.514564037323 -36.586742401123
v 22 -10.9059410095215 -35.3561935424805
v 22 -16.0536975860596 -33.3358497619629
v 22 -20.8428421020508 -30.5708351135254
v 22 -25.1663913726807 -27.1229190826416
v 22 -28.9277648925781 -23.0691223144531
v 22 -32.0429382324219 -18.5
v 22 -34.4423294067383 -13.5176181793213
v 22 -36.0723342895508 -8.23327445983887
v 22 -36.896541595459 -2.7650134563446
v 22 -36.896541595459 2.7650134563446
v 22 -36.0723342895508 8.23327445983887
v 22 -34.4423294067383 13.5176181793213
v 22 -32.0429382324219 18.5
v 22 -28.9277648925781 23.0691223144531
v 22 -25.1663913726807 27.1229190826416
v 22 -20.8428421020508 30.5708351135254
v 22 -16.0536975860596 33.3358497619629
v 22 -10.9059410095215 35.3561935424805
v 22 -5.514564037323 36.586742401123
v 22 0 37
v 22 5.514564037323 36.586742401123
v 22 10.9059410095215 35.3561935424805
v 22 16.0536975860596 33.3358497619629
v 22 20.8428421020508 30.5708351135254
v 22 25.1663913726807 27.1229190826416
v 22 28.9277648925781 23.0691223144531
v 22 32.0429382324219 18.5
v 22 34.4423294067383 13.5176181793213
v 22 36.0723342895508 8.23327445983887
v 22 36.896541595459 2.7650134563446
v 22 36.896541595459 -2.7650134563446
v 22 36.0723342895508 -8.23327445983887
v 22 34.4423294067383 -13.5176181793213
v 22 32.0429382324219 -18.5
v 22 28.9277648925781 -23.0691223144531
v 22 25.1663913726807 -27.1229190826416
v 22 20.8428421020508 -30.5708351135254
v 22 16.0536975860596 -33.3358497619629
v 22 10.9059410095215 -35.3561935424805
v 22 5.514564037323 -36.586742401123
v -22 0 -37
v -22 -5.514564037323 -36.586742401123
v -22 -10.9059410095215 -35.3561935424805
v -22 -16.0536975860596 -33.3358497619629
v -22 -20.8428421020508 -30.5708351135254
v -22 -25.1663913726807 -27.1229190826416
v -22 -28.9277648925781 -23.0691223144531
v -22 -32.0429382324219 -18.5
v -22 -34.4423294067383 -13.5176181793213
v -22 -36.0723342895508 -8.23327445983887
v -22 -36.896541595459 -2.7650134563446
v -22 -36.896541595459 2.7650134563446
v -22 -36.0723342895508 8.23327445983887
v -22 -34.4423294067383 13.5176181793213
v -22 -32.0429382324219 18.5
v -22 -28.9277648925781 23.0691223144531
v -22 -25.1663913726807 27.1229190826416
v -22 -20.8428421020508 30.5708351135254
v -22 -16.0536975860596 33.3358497619629
v -22 -10.9059410095215 35.3561935424805
v -22 -5.514564037323 36.586742401123
v -22 0 37
v -22 5.514564037323 36.586742401123
v -22 10.9059410095215 35.3561935424805
v -22 16.0536975860596 33.3358497619629
v -22 20.8428421020508 30.5708351135254
v -22 25.1663913726807 27.1229190826416
v -22 28.9277648925781 23.0691223144531
v -22 32.0429382324219 18.5
v -22 34.4423294067383 13.5176181793213
v -22 36.0723342895508 8.23327445983887
v -22 36.896541595459 2.7650134563446
v -22 36.896541595459 -2.7650134563446
v -22 36.0723342895508 -8.23327445983887
v -22 34.4423294067383 -13.5176181793213
v -22 32.0429382324219 -18.5
v -22 28.9277648925781 -23.0691223144531
v -22 25.1663913726807 -27.1229190826416
v -22 20.8428421020508 -30.5708351135254
v -22 16.0536975860596 -33.3358497619629
v -22 10.9059410095215 -35.3561935424805
v -22 5.514564037323 -36.586742401123
vt 0 0
vt 0 0.614830434322357
vt 0.0238095242530107 0
vt 0.0238095242530107 0.614830434322357
vt 0.0476190485060215 0
vt 0.0476190485060215 0.614830434322357
vt 0.0714285746216774 0
vt 0.0714285746216774 0.614830434322357
vt 0.095238097012043 0
vt 0.095238097012043 0.614830434322357
vt 0.119047619402409 0
vt 0.119047619402409 0.614830434322357
vt 0.142857149243355 0
vt 0.142857149243355 0.614830434322357
vt 0.16666667163372 0
vt 0.16666667163372 0.614830434322357
vt 0.190476194024086 0
vt 0.190476194024086 0.614830434322357
vt 0.214285716414452 0
vt 0.214285716414452 0.614830434322357
vt 0.238095238804817 0
vt 0.238095238804817 0.614830434322357
vt 0.261904776096344 0
vt 0.261904776096344 0.614830434322357
vt 0.28571429848671 0
vt 0.28571429848671 0.614830434322357
vt 0.309523820877075 0
vt 0.309523820877075 0.614830434322357
vt 0.333333343267441 0
vt 0.333333343267441 0.614830434322357
vt 0.357142865657806 0
vt 0.357142865657806 0.614830434322357
vt 0.380952388048172 0
vt 0.380952388048172 0.614830434322357
vt 0.404761910438538 0
vt 0.404761910438538 0.614830434322357
vt 0.428571432828903 0
vt 0.428571432828903 0.614830434322357
vt 0.452380955219269 0
vt 0.452380955219269 0.614830434322357
vt 0.476190477609634 0
vt 0.476190477609634 0.614830434322357
vt 0.5 0
vt 0.5 0.614830434322357
vt 0.523809552192688 0
vt 0.523809552192688 0.614830434322357
vt 0.547619044780731 0
vt 0.547619044780731 0.614830434322357
vt 0.571428596973419 0
vt 0.571428596973419 0.614830434322357
vt 0.595238089561462 0
vt 0.595238089561462 0.614830434322357
vt 0.61904764175415 0
vt 0.61904764175415 0.614830434322357
vt 0.642857134342194 0
vt 0.642857134342194 0.614830434322357
vt 0.666666686534882 0
vt 0.666666686534882 0.614830434322357
vt 0.690476179122925 0
vt 0.690476179122925 0.614830434322357
vt 0.714285731315613 0
vt 0.714285731315613 0.614830434322357
vt 0.738095223903656 0
vt 0.738095223903656 0.614830434322357
vt 0.761904776096344 0
vt 0.761904776096344 0.614830434322357
vt 0.785714268684387 0
vt 0.785714268684387 0.614830434322357
vt 0.809523820877075 0
vt 0.809523820877075 0.614830434322357
vt 0.833333313465118 0
vt 0.833333313465118 0.614830434322357
vt 0.857142865657806 0
vt 0.857142865657806 0.614830434322357
vt 0.88095235824585 0
vt 0.88095235824585 0.614830434322357
vt 0.904761910438538 0
vt 0.904761910438538 0.614830434322357
vt 0.928571403026581 0
vt 0.928571403026581 0.614830434322357
vt 0.952380955219269 0
vt 0.952380955219269 0.614830434322357
vt 0.976190447807312 0
vt 0.976190447807312 0.614830434322357
vt 1 0
vt 1 0.614830434322357
vt 0.318606913089752 0.807415544986725
vt 0.31682762503624 0.778631806373596
vt 0.311529487371445 0.750491082668304
vt 0.302830904722214 0.723621964454651
vt 0.29092612862587 0.698624670505524
vt 0.276081144809723 0.676057517528534
vt 0.258627533912659 0.656424760818481
vt 0.238955184817314 0.640164852142334
vt 0.217503532767296 0.627641022205353
vt 0.194751799106598 0.619133114814758
vt 0.171208217740059 0.61483108997345
vt 0.147398695349693 0.61483108997345
vt 0.123855099081993 0.619133114814758
vt 0.101103365421295 0.627641022205353
vt 0.079651728272438 0.640164852142334
vt 0.0599793754518032 0.656424760818481
vt 0.0425257571041584 0.676057517528534
vt 0.0276807639747858 0.698624670505524
vt 0.0157760009169579 0.723621964454651
vt 0.00707740522921085 0.750491082668304
vt 0.00177928793709725 0.778631806373596
vt 0 0.807415544986725
vt 0.00177928793709725 0.836199223995209
vt 0.00707740522921085 0.8643399477005
vt 0.0157760009169579 0.891209125518799
vt 0.0276807639747858 0.916206419467926
vt 0.0425257571041584 0.938773512840271
vt 0.0599793754518032 0.958406329154968
vt 0.079651728272438 0.974666237831116
vt 0.101103365421295 0.987190067768097
vt 0.123855099081993 0.995697975158691
vt 0.147398695349693 1
vt 0.171208217740059 1
vt 0.194751799106598 0.995697975158691
vt 0.217503532767296 0.987190067768097
vt 0.238955184817314 0.974666237831116
vt 0.258627533912659 0.958406329154968
vt 0.276081144809723 0.938773512840271
vt 0.29092612862587 0.916206419467926
vt 0.302830904722214 0.891209125518799
vt 0.311529487371445 0.8643399477005
vt 0.31682762503624 0.836199223995209
vt 0.318606913089752 0.807415544986725
vt 0.31682762503624 0.836199223995209
vt 0.311529487371445 0.8643399477005
vt 0.302830904722214 0.891209125518799
vt 0.29092612862587 0.916206419467926
vt 0.276081144809723 0.938773512840271
vt 0.258627533912659 0.958406329154968
vt 0.238955184817314 0.974666237831116
vt 0.217503532767296 0.987190067768097
vt 0.194751799106598 0.995697975158691
vt 0.171208217740059 1
vt 0.147398695349693 1
vt 0.123855099081993 0.995697975158691
vt 0.101103365421295 0.987190067768097
vt 0.079651728272438 0.974666237831116
vt 0.0599793754518032 0.958406329154968
vt 0.0425257571041584 0.938773512840271
vt 0.0276807639747858 0.916206419467926
vt 0.0157760009169579 0.891209125518799
vt 0.00707740522921085 0.8643399477005
vt 0.00177928793709725 0.836199223995209
vt 0 0.807415544986725
vt 0.00177928793709725 0.778631806373596
vt 0.00707740522921085 0.750491082668304
vt 0.0157760009169579 0.723621964454651
vt 0.0276807639747858 0.698624670505524
vt 0.0425257571041584 0.676057517528534
vt 0.0599793754518032 0.656424760818481
vt 0.079651728272438 0.640164852142334
vt 0.101103365421295 0.627641022205353
vt 0.123855099081993 0.619133114814758
vt 0.147398695349693 0.61483108997345
vt 0.171208217740059 0.61483108997345
vt 0.194751799106598 0.619133114814758
vt 0.217503532767296 0.627641022205353
vt 0.238955184817314 0.640164852142334
vt 0.258627533912659 0.656424760818481
vt 0.276081144809723 0.676057517528534
vt 0.29092612862587 0.698624670505524
vt 0.302830904722214 0.723621964454651
vt 0.311529487371445 0.750491082668304
vt 0.31682762503624 0.778631806373596
vn 0 0 -1
vn 0 0 -1
vn 0 -0.149042263627052 -0.988830804824829
vn 0 -0.149042263627052 -0.988830804824829
vn 0 -0.294755160808563 -0.955572783946991
vn 0 -0.294755160808563 -0.955572783946991
vn 0 -0.433883726596832 -0.900968849658966
vn 0 -0.433883726596832 -0.900968849658966
vn 0 -0.56332004070282 -0.826238751411438
vn 0 -0.56332004070282 -0.826238751411438
vn 0 -0.680172741413116 -0.733051896095276
vn 0 -0.680172741413116 -0.733051896095276
vn 0 -0.781831502914429 -0.623489797115326
vn 0 -0.781831502914429 -0.623489797115326
vn 0 -0.866025388240814 -0.5
vn 0 -0.866025388240814 -0.5
vn 0 -0.93087375164032 -0.365341037511826
vn 0 -0.93087375164032 -0.365341037511826
vn 0 -0.97492790222168 -0.222520932555199
vn 0 -0.97492790222168 -0.222520932555199
vn 0 -0.997203826904297 -0.0747300907969475
vn 0 -0.997203826904297 -0.0747300907969475
vn 0 -0.997203826904297 0.0747300907969475
vn 0 -0.997203826904297 0.0747300907969475
vn 0 -0.97492790222168 0.222520932555199
vn 0 -0.97492790222168 0.222520932555199
vn 0 -0.93087375164032 0.365341037511826
vn 0 -0.93087375164032 0.365341037511826
vn 0 -0.866025388240814 0.5
vn 0 -0.866025388240814 0.5
vn 0 -0.781831502914429 0.623489797115326
vn 0 -0.781831502914429 0.623489797115326
vn 0 -0.680172741413116 0.733051896095276
vn 0 -0.680172741413116 0.733051896095276
vn 0 -0.56332004070282 0.826238751411438
vn 0 -0.56332004070282 0.826238751411438
vn 0 -0.433883726596832 0.900968849658966
vn 0 -0.433883726596832 0.900968849658966
vn 0 -0.294755160808563 0.955572783946991
vn 0 -0.294755160808563 0.955572783946991
vn 0 -0.149042263627052 0.988830804824829
vn 0 -0.149042263627052 0.988830804824829
vn 0 0 1
vn 0 0 1
vn 0 0.149042263627052 0.988830804824829
vn 0 0.149042263627052 0.988830804824829
vn 0 0.294755160808563 0.955572783946991
vn 0 0.294755160808563 0.955572783946991
vn 0 0.433883726596832 0.900968849658966
vn 0 0.433883726596832 0.900968849658966
vn 0 0.56332004070282 0.826238751411438
vn 0 0.56332004070282 0.826238751411438
vn 0 0.680172741413116 0.733051896095276
vn 0 0.680172741413116 0.733051896095276
vn 0 0.781831502914429 0.623489797115326
vn 0 0.781831502914429 0.623489797115326
vn 0 0.866025388240814 0.5
vn 0 0.866025388240814 0.5
vn 0 0.93087375164032 0.365341037511826
vn 0 0.93087375164032 0.365341037511826
vn 0 0.97492790222168 0.222520932555199
vn 0 0.97492790222168 0.222520932555199
vn 0 0.997203826904297 0.0747300907969475
vn 0 0.997203826904297 0.0747300907969475
vn 0 0.997203826904297 -0.0747300907969475
vn 0 0.997203826904297 -0.0747300907969475
vn 0 0.97492790222168 -0.222520932555199
vn 0 0.97492790222168 -0.222520932555199
vn 0 0.93087375164032 -0.365341037511826
vn 0 0.93087375164032 -0.365341037511826
vn 0 0.866025388240814 -0.5
vn 0 0.866025388240814 -0.5
vn 0 0.781831502914429 -0.623489797115326
vn 0 0.781831502914429 -0.623489797115326
vn 0 0.680172741413116 -0.733051896095276
vn 0 0.680172741413116 -0.733051896095276
vn 0 0.56332004070282 -0.826238751411438
vn 0 0.56332004070282 -0.826238751411438
vn 0 0.433883726596832 -0.900968849658966
vn 0 0.433883726596832 -0.900968849658966
vn 0 0.294755160808563 -0.955572783946991
vn 0 0.294755160808563 -0.955572783946991
vn 0 0.149042263627052 -0.988830804824829
vn 0 0.149042263627052 -0.988830804824829
vn 0 0 -1
vn 0 0 -1
vn 1 0 0
vn 1 0 0
vn 1 0 0
vn 1 0 0
vn 1 0 0
vn 1 0 0
vn 1 0 0
vn 1 0 0
vn 1 0 0
vn 1 0 0
vn 1 0 0
vn 1 0 0
vn 1 0 0
vn 1 0 0
vn 1 0 0
vn 1 0 0
vn 1 0 0
vn 1 0 0
vn 1 0 0
vn 1 0 0
vn 1 0 0
vn 1 0 0
vn 1 0 0
vn 1 0 0
vn 1 0 0
vn 1 0 0
vn 1 0 0
vn 1 0 0
vn 1 0 0
vn 1 0 0
vn 1 0 0
vn 1 0 0
vn 1 0 0
vn 1 0 0
vn 1 0 0
vn 1 0 0
vn 1 0 0
vn 1 0 0
vn 1 0 0
vn 1 0 0
vn 1 0 0
vn 1 0 0
vn -1 0 0
vn -1 0 0
vn -1 0 0
vn -1 0 0
vn -1 0 0
vn -1 0 0
vn -1 0 0
vn -1 0 0
vn -1 0 0
vn -1 0 0
vn -1 0 0
vn -1 0 0
vn -1 0 0
vn -1 0 0
vn -1 0 0
vn -1 0 0
vn -1 0 0
vn -1 0 0
vn -1 0 0
vn -1 0 0
vn -1 0 0
vn -1 0 0
vn -1 0 0
vn -1 0 0
vn -1 0 0
vn -1 0 0
vn -1 0 0
vn -1 0 0
vn -1 0 0
vn -1 0 0
vn -1 0 0
vn -1 0 0
vn -1 0 0
vn -1 0 0
vn -1 0 0
vn -1 0 0
vn -1 0 0
vn -1 0 0
vn -1 0 0
vn -1 0 0
vn -1 0 0
vn -1 0 0
f 113/113/113 112/112/112 111/111/111 110/110/110 109/109/109 \
108/108/108 107/107/107 106/106/106 105/105/105 104/104/104 103/103/103 \
102/102/102 101/101/101 100/100/100 99/99/99 98/98/98 97/97/97 \
96/96/96 95/95/95 94/94/94 93/93/93 92/92/92 91/91/91 90/90/90 \
89/89/89 88/88/88 87/87/87 128/128/128 127/127/127 126/126/126 \
125/125/125 124/124/124 123/123/123 122/122/122 121/121/121 120/120/120 \
119/119/119 118/118/118 117/117/117 116/116/116 115/115/115 114/114/114
f 153/153/153 154/154/154 155/155/155 156/156/156 157/157/157 \
158/158/158 159/159/159 160/160/160 161/161/161 162/162/162 163/163/163 \
164/164/164 165/165/165 166/166/166 167/167/167 168/168/168 169/169/169 \
170/170/170 129/129/129 130/130/130 131/131/131 132/132/132 133/133/133 \
134/134/134 135/135/135 136/136/136 137/137/137 138/138/138 139/139/139 \
140/140/140 141/141/141 142/142/142 143/143/143 144/144/144 145/145/145 \
146/146/146 147/147/147 148/148/148 149/149/149 150/150/150 151/151/151 \
152/152/152
f 1/1/1 3/3/3 4/4/4 2/2/2
f 3/3/3 5/5/5 6/6/6 4/4/4
f 5/5/5 7/7/7 8/8/8 6/6/6
f 7/7/7 9/9/9 10/10/10 8/8/8
f 9/9/9 11/11/11 12/12/12 10/10/10
f 11/11/11 13/13/13 14/14/14 12/12/12
f 13/13/13 15/15/15 16/16/16 14/14/14
f 15/15/15 17/17/17 18/18/18 16/16/16
f 17/17/17 19/19/19 20/20/20 18/18/18
f 19/19/19 21/21/21 22/22/22 20/20/20
f 21/21/21 23/23/23 24/24/24 22/22/22
f 23/23/23 25/25/25 26/26/26 24/24/24
f 25/25/25 27/27/27 28/28/28 26/26/26
f 27/27/27 29/29/29 30/30/30 28/28/28
f 29/29/29 31/31/31 32/32/32 30/30/30
f 31/31/31 33/33/33 34/34/34 32/32/32
f 33/33/33 35/35/35 36/36/36 34/34/34
f 35/35/35 37/37/37 38/38/38 36/36/36
f 37/37/37 39/39/39 40/40/40 38/38/38
f 39/39/39 41/41/41 42/42/42 40/40/40
f 41/41/41 43/43/43 44/44/44 42/42/42
f 43/43/43 45/45/45 46/46/46 44/44/44
f 45/45/45 47/47/47 48/48/48 46/46/46
f 47/47/47 49/49/49 50/50/50 48/48/48
f 49/49/49 51/51/51 52/52/52 50/50/50
f 51/51/51 53/53/53 54/54/54 52/52/52
f 53/53/53 55/55/55 56/56/56 54/54/54
f 55/55/55 57/57/57 58/58/58 56/56/56
f 57/57/57 59/59/59 60/60/60 58/58/58
f 59/59/59 61/61/61 62/62/62 60/60/60
f 61/61/61 63/63/63 64/64/64 62/62/62
f 63/63/63 65/65/65 66/66/66 64/64/64
f 65/65/65 67/67/67 68/68/68 66/66/66
f 67/67/67 69/69/69 70/70/70 68/68/68
f 69/69/69 71/71/71 72/72/72 70/70/70
f 71/71/71 73/73/73 74/74/74 72/72/72
f 73/73/73 75/75/75 76/76/76 74/74/74
f 75/75/75 77/77/77 78/78/78 76/76/76
f 77/77/77 79/79/79 80/80/80 78/78/78
f 79/79/79 81/81/81 82/82/82 80/80/80
f 81/81/81 83/83/83 84/84/84 82/82/82
f 83/83/83 85/85/85 86/86/86 84/84/84
